<svg width="54" height="75" viewBox="0 0 54 75" fill="none" xmlns="http://www.w3.org/2000/svg">
<g clip-path="url(#clip0_7523_1936)">
<g clip-path="url(#clip1_7523_1936)">
<path d="M1.82329 43.1007C-0.119027 41.4344 -0.635288 38.7249 0.889228 36.668C3.61432 32.9911 9.22004 26.6548 20.0561 18.3226C31.5987 9.44728 41.8918 3.45401 47.69 0.342774C49.7647 -0.770521 52.0933 0.988384 51.6919 3.31238L45.6511 38.3029C45.5919 38.6458 45.5941 38.9965 45.6576 39.3386L51.4979 70.7505C51.9515 73.1901 49.3651 75.047 47.211 73.8227C40.0509 69.7523 27.6453 62.6138 21.5372 58.5881C15.3006 54.4777 6.51071 47.1219 1.82329 43.1007Z" fill="#0B8896"/>
<path d="M15.3826 38.0896C16.9963 38.0896 18.3045 36.7785 18.3045 35.1611C18.3045 33.5436 16.9963 32.2325 15.3826 32.2325C13.7689 32.2325 12.4607 33.5436 12.4607 35.1611C12.4607 36.7785 13.7689 38.0896 15.3826 38.0896Z" fill="white"/>
<path d="M39.5591 41.3805C38.7853 40.8156 38.7538 39.67 39.4952 39.0633L51.1031 29.5613C52.1463 28.7076 53.6887 29.6028 53.4688 30.9343L51.9705 40.0099C51.9429 40.1775 51.9445 40.3488 51.9755 40.5159L53.4313 48.3828C53.6722 49.6847 52.2023 50.6129 51.1344 49.8332L39.5591 41.3805Z" fill="#FAB842"/>
<mask id="mask0_7523_1936" style="mask-type:alpha" maskUnits="userSpaceOnUse" x="7" y="45" width="13" height="6">
<path d="M8.07758 49.8031C10.269 50.0472 15.3823 49.6567 18.3041 46.1424" stroke="white" stroke-width="2" stroke-linecap="round"/>
</mask>
<g mask="url(#mask0_7523_1936)">
<path d="M2.36961 43.6852C0.183064 41.7478 -0.1727 38.5059 1.6616 36.2308C5.14167 31.9145 11.4251 24.8239 19.766 18.3226C28.6182 11.4227 40.1188 4.52284 46.6905 0.74996C48.8025 -0.46272 51.3109 1.33582 50.9013 3.74056L45.0076 38.3463C44.954 38.6609 44.9521 38.9822 45.0019 39.2974L50.1539 71.8759C50.5495 74.3775 47.8122 76.1725 45.6908 74.7955C38.1286 69.8868 24.8609 61.26 19.766 57.856C14.8677 54.5835 7.01354 47.8 2.36961 43.6852Z" fill="white"/>
</g>
</g>
</g>
<defs>
<clipPath id="clip0_7523_1936">
<rect width="53.49" height="74.21" fill="white"/>
</clipPath>
<clipPath id="clip1_7523_1936">
<rect width="53.49" height="74.21" fill="white"/>
</clipPath>
</defs>
</svg>
