<?xml version="1.0" encoding="UTF-8"?>
<svg xmlns="http://www.w3.org/2000/svg" width="99" height="28" viewBox="0 0 99 28" fill="none">
  <g clip-path="url(#clip0_1_1506)">
    <g clip-path="url(#clip1_1_1506)">
      <path d="M81.4345 20.2029H81.3885L81.3915 20.2479C81.5155 22.2749 82.2795 23.8419 83.6845 24.9429C85.0875 26.0429 87.0375 26.5909 89.5275 26.5909C91.2175 26.5909 92.6455 26.3369 93.8105 25.8269C94.9855 25.3169 95.8755 24.6089 96.4765 23.6999C97.0775 22.7789 97.3765 21.6898 97.3765 20.4319C97.3765 19.3329 97.1345 18.4389 96.6445 17.7539C96.1665 17.0589 95.4455 16.5079 94.4845 16.0999C93.5245 15.6819 92.2065 15.3149 90.5305 14.9999C89.5085 14.8079 88.7235 14.6219 88.1755 14.4429C87.6385 14.2629 87.2645 14.0579 87.0465 13.8289C86.8315 13.5919 86.7205 13.2539 86.7205 12.8109C86.7205 12.4259 86.8355 12.0979 87.0645 11.8239C87.2945 11.5379 87.6245 11.3229 88.0575 11.1779C88.4905 11.0229 89.0025 10.9439 89.5955 10.9439C90.5895 10.9439 91.3425 11.1629 91.8605 11.5939C92.3795 12.0139 92.6785 12.5989 92.7565 13.3559L92.7595 13.3939H97.2275L97.2255 13.3489C97.1685 12.1039 96.8295 11.0359 96.2055 10.1499C95.5825 9.25285 94.7095 8.57785 93.5905 8.12385C92.4705 7.67085 91.1395 7.44485 89.5955 7.44485C88.0165 7.44485 86.6555 7.69885 85.5145 8.20885C84.3725 8.70785 83.5115 9.40485 82.9325 10.3039C82.3655 11.2009 82.0825 12.2289 82.0825 13.3849C82.0825 14.4499 82.3085 15.3319 82.7645 16.0279C83.2305 16.7229 83.9295 17.2739 84.8565 17.6829C85.7935 18.0899 87.0725 18.4509 88.6925 18.7669C89.7145 18.9809 90.5055 19.1829 91.0655 19.3739C91.6235 19.5639 92.0195 19.8029 92.2605 20.0869C92.4995 20.3589 92.6205 20.7319 92.6205 21.2079C92.6205 21.7439 92.3655 22.1939 91.8465 22.5589C91.3285 22.9129 90.5635 23.0929 89.5445 23.0929C88.4145 23.0929 87.5495 22.8349 86.9415 22.3249C86.3335 21.8149 86.0065 21.1229 85.9615 20.2439L85.9595 20.2029H81.4345ZM72.7245 23.7779C73.0895 24.5979 73.7205 25.2528 74.6145 25.7409C75.5115 26.2309 76.7225 26.4729 78.2445 26.4729H80.5895V22.5689H79.3395C78.4555 22.5689 77.8275 22.3999 77.4465 22.0719C77.0745 21.7329 76.8865 21.2619 76.8865 20.6519V11.6199H81.1365V7.85085H76.8875V1.71985H72.1815V7.85185H68.9615V11.6209H72.1815V20.8719C72.1815 21.9799 72.3615 22.9489 72.7245 23.7779ZM50.6765 26.1429V26.1859H55.3825V7.83385H50.6765V26.1429ZM51.5915 5.88285C52.0135 6.11685 52.4935 6.23285 53.0295 6.23285C53.5655 6.23285 54.0395 6.11685 54.4495 5.88285C54.8621 5.64665 55.2021 5.30182 55.4325 4.88585C55.6785 4.45385 55.8005 3.97585 55.8005 3.45285C55.8005 2.92985 55.6785 2.45785 55.4325 2.03785C55.2088 1.61671 54.8672 1.2699 54.4495 1.03985C54.0395 0.794852 53.5655 0.672852 53.0295 0.672852C52.4935 0.672852 52.0135 0.794852 51.5925 1.03985C51.1724 1.27244 50.8259 1.6182 50.5925 2.03785C50.3575 2.45785 50.2405 2.92985 50.2405 3.45285C50.2405 3.97585 50.3575 4.45285 50.5915 4.88485V4.88585C50.8375 5.30585 51.1715 5.63785 51.5915 5.88285ZM32.6085 26.1429V26.1859H37.3135V15.6999C37.3135 14.9059 37.4695 14.1979 37.7815 13.5739C38.0896 12.9652 38.5631 12.4558 39.1475 12.1039C39.7355 11.7479 40.4305 11.5689 41.2335 11.5689C42.3135 11.5689 43.1435 11.9089 43.7305 12.5849C44.3285 13.2509 44.6305 14.2029 44.6305 15.4469V26.1859H49.3355V14.8219C49.3355 13.2519 49.0765 11.9149 48.5555 10.8159C48.0475 9.71585 47.3055 8.88085 46.3305 8.31285C45.3555 7.73285 44.1845 7.44485 42.8185 7.44485C41.5755 7.44485 40.4835 7.70485 39.5435 8.22785C38.6278 8.72916 37.8594 9.46143 37.3145 10.3519V1.73385H32.6075V26.1419L32.6085 26.1429ZM15.2135 20.2029H15.1675L15.1705 20.2479C15.2945 22.2749 16.0585 23.8419 17.4635 24.9429C18.8665 26.0429 20.8165 26.5909 23.3065 26.5909C24.9965 26.5909 26.4245 26.3369 27.5895 25.8269C28.7645 25.3169 29.6545 24.6089 30.2555 23.6999C30.8555 22.7789 31.1555 21.6898 31.1555 20.4319C31.1555 19.3329 30.9135 18.4389 30.4235 17.7539C29.9455 17.0589 29.2245 16.5079 28.2635 16.0999C27.3035 15.6819 25.9855 15.3149 24.3095 14.9999C23.2865 14.8079 22.5025 14.6219 21.9545 14.4429C21.4175 14.2629 21.0435 14.0579 20.8255 13.8289C20.6105 13.5919 20.4995 13.2539 20.4995 12.8109C20.4995 12.4259 20.6145 12.0979 20.8435 11.8239C21.0735 11.5379 21.4035 11.3229 21.8365 11.1779C22.2695 11.0229 22.7815 10.9439 23.3735 10.9439C24.3685 10.9439 25.1215 11.1629 25.6395 11.5939C26.1585 12.0139 26.4575 12.5989 26.5355 13.3559L26.5385 13.3939H31.0065L31.0045 13.3489C30.9475 12.1039 30.6085 11.0359 29.9845 10.1499C29.3615 9.25285 28.4895 8.57785 27.3695 8.12385C26.2495 7.67085 24.9185 7.44485 23.3745 7.44485C21.7955 7.44485 20.4345 7.69885 19.2935 8.20885C18.1515 8.70785 17.2905 9.40485 16.7115 10.3039C16.1445 11.2009 15.8615 12.2289 15.8615 13.3849C15.8615 14.4499 16.0875 15.3319 16.5435 16.0279C17.0095 16.7229 17.7085 17.2739 18.6355 17.6829C19.5725 18.0899 20.8515 18.4509 22.4715 18.7669C23.4945 18.9809 24.2845 19.1829 24.8445 19.3739C25.4025 19.5639 25.7985 19.8029 26.0395 20.0869C26.2785 20.3589 26.3995 20.7319 26.3995 21.2079C26.3995 21.7439 26.1445 22.1939 25.6255 22.5589C25.1075 22.9129 24.3425 23.0929 23.3235 23.0929C22.1935 23.0929 21.3285 22.8349 20.7205 22.3249C20.1125 21.8149 19.7855 21.1229 19.7405 20.2439L19.7385 20.2029H15.2135Z" fill="black" stroke="black" stroke-width="0.086"></path>
      <path fill-rule="evenodd" clip-rule="evenodd" d="M67.6466 0.781762H66.5346C65.0806 0.781762 63.9236 0.876762 62.9676 1.38376C62.0126 1.89076 61.3046 2.58876 60.8436 3.47876C60.3826 4.35876 60.1516 5.36576 60.1516 6.50376V7.90676H56.6616V11.5898H60.1516V26.1558H64.7716V11.5898H69.0046V7.90676H64.7716V6.52076C64.7716 5.33576 65.7326 4.37476 66.9176 4.37476H68.4576V0.780762L67.6466 0.781762Z" fill="black"></path>
      <mask id="mask0_1_1506" style="mask-type:luminance" maskUnits="userSpaceOnUse" x="55" y="-1" width="15" height="28">
        <path d="M55.6616 -0.219238H69.6616V26.7808H55.6616V-0.219238Z" fill="white"></path>
        <path fill-rule="evenodd" clip-rule="evenodd" d="M67.6466 0.781762H66.5346C65.0806 0.781762 63.9236 0.876762 62.9676 1.38376C62.0126 1.89076 61.3046 2.58876 60.8436 3.47876C60.3826 4.35876 60.1516 5.36576 60.1516 6.50376V7.90676H56.6616V11.5898H60.1516V26.1558H64.7716V11.5898H69.0046V7.90676H64.7716V6.52076C64.7716 5.33576 65.7326 4.37476 66.9176 4.37476H68.4576V0.780762L67.6466 0.781762Z" fill="black"></path>
      </mask>
      <g mask="url(#mask0_1_1506)">
        <path d="M66.5347 0.781824V0.694824V0.779824V0.781824ZM60.1517 7.90682V7.99182H60.2377V7.90682H60.1517ZM56.6617 7.90682V7.82082H56.5767V7.90682H56.6617ZM56.6617 11.5898H56.5767V11.6758H56.6617V11.5898ZM60.1517 11.5898H60.2377V11.5048H60.1517V11.5898ZM60.1517 26.1558H60.0667V26.2418H60.1517V26.1558ZM64.7717 26.1558V26.2418H64.8577V26.1558H64.7717ZM64.7717 11.5898V11.5048H64.6867V11.5898H64.7717ZM69.0047 11.5898V11.6758H69.0897V11.5898H69.0047ZM69.0047 7.90682H69.0897V7.82082H69.0047V7.90682ZM64.7717 7.90682H64.6867V7.99182H64.7717V7.90682ZM68.4577 4.37482V4.46082H68.5427V4.37482H68.4577ZM68.4577 0.780824H68.5427V0.695824H68.4577V0.780824ZM66.5347 0.866824H67.6467V0.695824L66.5347 0.694824V0.866824ZM63.0077 1.45982C63.9427 0.963824 65.0807 0.866824 66.5347 0.866824V0.694824C65.0797 0.694824 63.9047 0.790824 62.9277 1.30882L63.0077 1.45982ZM60.9187 3.51882C61.3707 2.64482 62.0667 1.95982 63.0077 1.45982L62.9277 1.30882C61.9577 1.82282 61.2377 2.53282 60.7677 3.43982L60.9187 3.51882ZM60.2377 6.50382C60.2377 5.37782 60.4657 4.38382 60.9187 3.51882L60.7677 3.43882C60.2997 4.33182 60.0667 5.35482 60.0667 6.50382H60.2377ZM60.2377 7.90682V6.50382H60.0667V7.90682H60.2377ZM56.6617 7.99182H60.1517V7.82182L56.6617 7.82082V7.99182ZM56.7477 11.5898V7.90682H56.5767V11.5898H56.7477ZM60.1517 11.5048H56.6617V11.6758L60.1517 11.6748V11.5048ZM60.2377 26.1558V11.5898H60.0667V26.1558H60.2377ZM64.7717 26.0708H60.1517V26.2408H64.7717V26.0708ZM64.6867 11.5898V26.1558H64.8577L64.8567 11.5898H64.6867ZM69.0047 11.5048H64.7717V11.6748L69.0047 11.6758V11.5048ZM68.9187 7.90682V11.5898H69.0897V7.90682H68.9187ZM64.7717 7.99182H69.0047V7.82082L64.7717 7.82182V7.99182ZM64.6867 6.52082V7.90682H64.8567V6.52082H64.6867ZM66.9177 4.28882C65.6857 4.28882 64.6867 5.28882 64.6867 6.52082H64.8567C64.8567 6.25022 64.91 5.98226 65.0136 5.73226C65.1172 5.48227 65.269 5.25513 65.4604 5.06383C65.6518 4.87253 65.879 4.72081 66.129 4.61735C66.3791 4.51388 66.647 4.46069 66.9177 4.46082V4.28882ZM67.5607 4.28882H66.9177V4.46082H67.5607V4.28882ZM68.4577 4.28882H67.5607V4.46082H68.4577V4.28882ZM68.3717 0.781824V4.37582L68.5427 4.37482V0.780824H68.3727L68.3717 0.781824ZM67.6467 0.866824L68.4567 0.867824L68.4577 0.695824H67.6467V0.866824Z" fill="black"></path>
      </g>
      <path d="M4.04559 26.1007C4.18459 22.8247 4.71059 19.8407 5.62559 17.1487C6.55159 14.4577 7.70859 12.1387 9.09759 10.1907C10.4876 8.24372 12.0146 6.60072 13.6816 5.26072L14.3416 6.06772H0.32959V1.63672H17.7796V6.37672C16.3796 7.67072 15.0886 9.22872 13.9076 11.0497C12.7376 12.8597 11.7606 15.0357 10.9736 17.5787C10.1976 20.1217 9.76959 22.9617 9.68859 26.1007H4.04559Z" fill="black"></path>
    </g>
  </g>
  <defs>
    <clipPath id="clip0_1_1506">
      <rect width="98" height="27" fill="white" transform="translate(0.32959 0.131836)"></rect>
    </clipPath>
    <clipPath id="clip1_1_1506">
      <rect width="98" height="27" fill="white" transform="translate(0.32959 0.131836)"></rect>
    </clipPath>
  </defs>
</svg>
